HIERARCHY
ROOT root
{
	OFFSET	0	13.1	24.9
	CHANNELS 6  Xposition Yposition Zposition Xrotation Yrotation Zrotation
	JOINT spine_1
	{
		OFFSET	0	9.99999	0
		CHANNELS 3  Xrotation Yrotation Zrotation
		JOINT spine_2
		{
			OFFSET	0	112	-10
			CHANNELS 3  Xrotation Yrotation Zrotation
			JOINT spine_3
			{
				OFFSET	0	206.5	19.3
				CHANNELS 3  Xrotation Yrotation Zrotation
				JOINT spine_4
				{
					OFFSET	0	110.4	14.6
					CHANNELS 3  Xrotation Yrotation Zrotation
					JOINT neck_1
					{
						OFFSET	0	71.8	-50.3
						CHANNELS 3  Xrotation Yrotation Zrotation
						JOINT neck_2
						{
							OFFSET	0	86.2	-25.8
							CHANNELS 3  Xrotation Yrotation Zrotation
							JOINT head_ee
							{
								OFFSET	0	179.8	-8.7
								CHANNELS 3  Xrotation Yrotation Zrotation
								End Site
								{
									OFFSET	1	0	0
								}
							}
						}
					}
					JOINT left_clavicle
					{
						OFFSET	-43.2	22.4	-70.8
						CHANNELS 3  Xrotation Yrotation Zrotation
						JOINT left_shoulder
						{
							OFFSET	-93.9	-5.79999	48.7
							CHANNELS 3  Xrotation Yrotation Zrotation
							JOINT left_elbow
							{
								OFFSET	-291.4	-30.8	15.2
								CHANNELS 3  Xrotation Yrotation Zrotation
								JOINT left_lowarm_twist
								{
									OFFSET	-110.7	-3.89999	13.6
									CHANNELS 3  Xrotation Yrotation Zrotation
									JOINT left_hand
									{
										OFFSET	-110.7	-3.89999	13.6
										CHANNELS 3  Xrotation Yrotation Zrotation
										JOINT left_ee
										{
											OFFSET	-80.8	-5.10001	12.1
											CHANNELS 3  Xrotation Yrotation Zrotation
											End Site
											{
												OFFSET	1	0	0
											}
										}
									}
								}
							}
						}
					}
					JOINT right_clavicle
					{
						OFFSET	43.2	22.4	-70.8
						CHANNELS 3  Xrotation Yrotation Zrotation
						JOINT right_shoulder
						{
							OFFSET	93.9	-5.79999	48.7
							CHANNELS 3  Xrotation Yrotation Zrotation
							JOINT right_elbow
							{
								OFFSET	291.4	-30.8	15.2
								CHANNELS 3  Xrotation Yrotation Zrotation
								JOINT right_lowarm_twist
								{
									OFFSET	110.7	-3.89999	13.6
									CHANNELS 3  Xrotation Yrotation Zrotation
									JOINT right_hand
									{
										OFFSET	110.7	-3.89999	13.6
										CHANNELS 3  Xrotation Yrotation Zrotation
										JOINT right_ee
										{
											OFFSET	80.8	-5.10001	12.1
											CHANNELS 3  Xrotation Yrotation Zrotation
											End Site
											{
												OFFSET	1	0	0
											}
										}
									}
								}
							}
						}
					}
				}
			}
		}
	}
	JOINT left_hip
	{
		OFFSET	-82.8	-127.5	0.300001
		CHANNELS 3  Xrotation Yrotation Zrotation
		JOINT left_knee
		{
			OFFSET	-28.2	-396.7	2.2
			CHANNELS 3  Xrotation Yrotation Zrotation
			JOINT left_ankle
			{
				OFFSET	-11.7	-411.3	35.4
				CHANNELS 3  Xrotation Yrotation Zrotation
				JOINT left_toes
				{
					OFFSET	0	-60	-88.6
					CHANNELS 3  Xrotation Yrotation Zrotation
					JOINT left_foot_ee
					{
						OFFSET	-22.5	-16.5	-42.2
						CHANNELS 3  Xrotation Yrotation Zrotation
						End Site
						{
							OFFSET	1	0	0
						}
					}
				}
			}
		}
	}
	JOINT right_hip
	{
		OFFSET	82.8	-127.5	0.300001
		CHANNELS 3  Xrotation Yrotation Zrotation
		JOINT right_knee
		{
			OFFSET	28.2	-396.7	2.2
			CHANNELS 3  Xrotation Yrotation Zrotation
			JOINT right_ankle
			{
				OFFSET	11.7	-411.3	35.4
				CHANNELS 3  Xrotation Yrotation Zrotation
				JOINT right_toes
				{
					OFFSET	0	-60	-88.6
					CHANNELS 3  Xrotation Yrotation Zrotation
					JOINT right_foot_ee
					{
						OFFSET	22.5	-16.5	-42.2
						CHANNELS 3  Xrotation Yrotation Zrotation
						End Site
						{
							OFFSET	1	0	0
						}
					}
				}
			}
		}
	}
}
MOTION
Frames: 15
Frame Time: 0.02
2947.62 735.379 -501.734 170.85 -44.5423 175.23 -2.14234 -0.0139419 -0.957641 -2.14183 0.0470207 -0.956588 -2.14216 0.281464 -0.915454 -2.14331 0.13336 -0.948413 -10.098 17.8354 11.4336 -9.96637 25.997 15.5344 -0.0 0.0 -0.0 6.61752 13.2112 12.5711 2.76058 -11.1006 62.1245 2.2376 -47.9378 0.994891 37.182 -0.210863 -4.66277 3.34379 -27.8334 9.63648 -0.0 0.0 -0.0 10.8911 -5.31647 -21.0778 -4.11672 -1.25517 -52.4713 0.479606 13.3649 -0.0561921 73.6299 3.12547 8.2107 2.47459 -29.3871 -25.6562 0.0 0.0 0.0 6.49345 -25.6272 0.937732 -17.2678 0.318158 2.62079 23.8278 27.739 -3.41916 -31.2346 0.0 0.0 -0.0 0.0 -0.0 9.49623 -24.4433 6.24254 -10.1491 -0.282996 -1.52982 -16.1987 25.8326 -2.95161 38.859 -0.0 -0.0 0.0 0.0 0.0 
2949.97 736.1 -501.747 170.914 -44.8569 175.059 -2.0832 -0.0186749 -1.085 -2.08254 0.0504003 -1.08399 -2.08292 0.315092 -1.03842 -2.08439 0.147149 -1.07514 -11.2307 17.186 11.6974 -11.131 24.932 15.8513 -0.0 0.0 -0.0 6.53432 12.5005 12.4596 3.35531 -11.4519 63.0257 2.14994 -46.7974 0.930393 36.154 -0.164478 -4.53979 3.1097 -27.7362 8.18422 -0.0 0.0 -0.0 10.6917 -5.35403 -20.6757 -3.29184 -0.377396 -52.7256 0.416577 11.6601 -0.0425353 73.4628 3.10739 8.19919 2.59897 -29.9197 -26.5124 0.0 0.0 0.0 4.02753 -26.3789 0.265024 -14.1274 0.319362 2.13903 26.7071 27.7386 -3.78194 -30.8401 0.0 0.0 -0.0 0.0 -0.0 12.0403 -26.0772 6.09151 -8.32721 -0.25224 -1.25196 -19.2093 27.4227 -3.57496 37.208 -0.0 -0.0 0.0 0.0 0.0 
2954.55 738.019 -492.924 170.506 -46.3381 175.34 -1.96929 -0.0725944 -1.22203 -1.96845 0.00530793 -1.22418 -1.9678 0.30343 -1.18599 -1.96975 0.112331 -1.21902 -11.4417 15.9124 11.9746 -11.2759 22.3776 15.7944 -0.0 0.0 -0.0 6.01362 11.291 11.5984 3.82874 -13.5186 64.6827 2.16389 -46.9822 0.940579 38.1017 -0.254227 -4.77208 2.39329 -26.2666 4.32903 -0.0 0.0 -0.0 10.281 -4.60165 -19.9237 -2.0586 -1.1637 -54.5343 0.279674 7.88786 -0.0192817 73.5676 3.11872 8.20642 2.10797 -27.7924 -23.0992 0.0 0.0 0.0 3.14853 -20.6972 -0.545776 -11.1403 0.296012 1.68135 22.748 28.55 -3.29773 -30.4573 0.0 0.0 -0.0 0.0 -0.0 12.4341 -27.2299 4.32356 -8.62263 -0.257828 -1.29695 -20.4105 25.3672 -3.70475 37.4767 -0.0 -0.0 0.0 0.0 0.0 
2966.96 736.714 -485.406 169.076 -47.6338 174.237 -1.86913 -0.165091 -1.45278 -1.86796 -0.072322 -1.46034 -1.86496 0.283108 -1.43447 -1.86783 0.0530325 -1.46117 -13.5537 14.8621 12.9375 -13.3604 20.3835 16.7724 -0.0 0.0 -0.0 5.65057 10.9323 10.9735 3.97774 -15.5785 66.6061 2.15411 -46.8528 0.933435 37.9814 -0.248454 -4.75782 2.46311 -27.4623 4.18438 -0.0 0.0 -0.0 10.4732 -5.84239 -20.1953 -4.61929 -1.81797 -52.8362 0.357562 10.0446 -0.0314229 74.2776 3.1959 8.25486 2.42604 -29.1086 -25.3071 0.0 0.0 0.0 1.46717 -18.1457 -1.49074 -12.7457 0.311528 1.92718 23.7307 28.6177 -3.42712 -30.3404 0.0 0.0 -0.0 0.0 -0.0 11.6631 -26.8284 4.89326 -8.80534 -0.261167 -1.32479 -20.9662 27.1588 -3.88993 38.2924 -0.0 -0.0 0.0 0.0 0.0 
2978.55 736.076 -480.863 168.92 -49.996 173.654 -1.6747 -0.171007 -1.62343 -1.67324 -0.0673722 -1.63101 -1.66998 0.323774 -1.59998 -1.67354 0.0670579 -1.63103 -13.0554 14.1825 11.6906 -12.9147 19.7154 15.3194 -0.0 0.0 -0.0 5.33375 9.56567 10.4296 3.80282 -17.5377 67.8748 2.09562 -46.0656 0.891037 37.8904 -0.244108 -4.74703 2.36682 -24.7747 4.89009 -0.0 0.0 -0.0 10.1234 -6.82712 -19.4171 -5.42588 -2.0433 -52.9079 0.28752 8.10624 -0.0203733 73.9005 3.15483 8.22925 2.16744 -28.8796 -23.6947 0.0 0.0 0.0 1.23735 -18.5533 -1.03382 -13.2801 0.315164 2.00909 24.681 29.0809 -3.56095 -29.9442 0.0 0.0 -0.0 0.0 -0.0 11.651 -28.1796 5.6619 -8.54511 -0.256384 -1.28514 -18.0591 28.4347 -3.40403 40.1787 -0.0 -0.0 0.0 0.0 0.0 
2991.79 741.357 -475.089 168.263 -52.1991 173.27 -1.59583 -0.0426168 -1.92312 -1.59378 0.0798197 -1.92194 -1.59485 0.533824 -1.84806 -1.59954 0.235314 -1.90915 -14.497 12.6675 14.1301 -14.1164 15.7133 17.3336 -0.0 0.0 -0.0 5.40369 8.54366 10.5561 3.31722 -21.118 70.192 2.14147 -46.6846 0.924224 39.5845 -0.327828 -4.94684 1.70487 -22.8556 1.48811 -0.0 0.0 -0.0 9.8337 -6.93894 -18.8456 -6.17639 -1.93648 -52.8616 0.219891 6.21673 -0.0119411 73.6576 3.12847 8.21261 2.21486 -29.0887 -24.0237 0.0 0.0 0.0 1.23214 -15.5514 -1.08445 -14.0849 0.319197 2.13251 25.6557 28.5728 -3.67198 -28.3738 0.0 0.0 -0.0 0.0 -0.0 10.7907 -29.4006 5.7603 -8.24198 -0.250585 -1.23899 -18.6144 28.1311 -3.49546 40.1972 -0.0 -0.0 0.0 0.0 0.0 
2999.19 741.107 -466.858 168.484 -53.6539 173.334 -1.35374 -0.0493565 -2.07479 -1.35135 0.0827387 -2.07372 -1.3526 0.564287 -1.99722 -1.35809 0.241852 -2.06124 -14.5369 12.1655 14.7708 -14.0736 14.3692 17.7722 -0.0 0.0 -0.0 5.33958 8.76862 10.4413 2.35349 -22.1158 70.3986 2.15973 -46.9272 0.937535 41.5532 -0.432509 -5.17584 1.83418 -19.4148 3.92923 -0.0 0.0 -0.0 9.79357 -6.02648 -18.8453 -8.70495 -2.11196 -53.3176 0.267721 7.55472 -0.0176758 73.7448 3.13793 8.2186 2.00136 -29.0634 -22.7411 0.0 0.0 0.0 0.886165 -14.0805 -1.1349 -12.4295 0.309016 1.87872 21.9517 29.0721 -3.20475 -28.5453 0.0 0.0 -0.0 0.0 -0.0 11.0696 -30.7126 6.5257 -8.66145 -0.258544 -1.30286 -18.6312 28.5669 -3.51881 40.2092 -0.0 -0.0 0.0 0.0 0.0 
3006.73 740.637 -462.393 167.544 -55.3331 171.863 -1.25417 -0.018498 -2.22914 -1.25142 0.12335 -2.2258 -1.25432 0.635656 -2.13671 -1.26057 0.290312 -2.21024 -14.9172 11.5908 15.0031 -14.417 13.2419 17.854 -0.0 0.0 -0.0 5.21337 6.96691 10.207 2.86301 -23.0831 72.1333 2.05431 -45.4957 0.861432 44.1413 -0.58201 -5.47125 1.85268 -17.3945 4.97864 -0.0 0.0 -0.0 10.1324 -9.48855 -19.1631 -10.2453 -1.26223 -51.0362 0.29805 8.39895 -0.0218847 74.3331 3.20195 8.25861 2.36945 -29.7219 -25.0815 0.0 0.0 0.0 1.42027 -11.0774 -0.757555 -14.1548 0.319465 2.14324 21.2615 28.7071 -3.10501 -26.9034 0.0 0.0 -0.0 0.0 -0.0 9.45621 -29.1082 6.9121 -8.1559 -0.248894 -1.22588 -15.0285 28.7789 -2.84035 40.1836 -0.0 -0.0 0.0 0.0 0.0 
3010.66 741.26 -465.272 168.363 -56.9156 171.872 -1.32635 -0.0291168 -2.35971 -1.32326 0.121054 -2.35679 -1.32605 0.666639 -2.26383 -1.33308 0.300848 -2.34065 -14.6292 11.264 14.9109 -14.1197 12.5781 17.6305 -0.0 0.0 -0.0 4.94317 6.36796 9.70663 2.00633 -25.4101 73.4745 2.11194 -46.2875 0.90281 46.4741 -0.728107 -5.73156 1.91368 -16.5627 5.76682 -0.0 0.0 -0.0 10.8609 -10.1414 -20.4627 -8.77677 -0.758362 -48.6361 0.220844 6.24347 -0.0120445 74.4277 3.21228 8.26498 2.11703 -29.67 -23.5587 0.0 0.0 0.0 1.1473 -12.8772 -0.433666 -12.3613 0.30844 1.86828 21.002 27.6442 -3.04856 -26.8129 0.0 0.0 -0.0 0.0 -0.0 9.40974 -29.1378 6.89795 -6.3458 -0.208778 -0.951019 -12.9567 28.6899 -2.44089 40.0955 -0.0 -0.0 0.0 0.0 0.0 
3011.23 744.37 -461.422 167.782 -58.8176 171.114 -1.34472 0.00274936 -2.30824 -1.34176 0.149584 -2.30339 -1.34573 0.682712 -2.20502 -1.35237 0.325998 -2.28512 -13.8555 10.2125 15.4685 -13.2496 9.96802 17.7536 -0.0 0.0 -0.0 4.7953 4.82181 9.40437 2.55025 -24.6473 74.4373 2.05463 -45.5001 0.861654 47.2851 -0.781381 -5.82067 1.91873 -12.1334 7.79417 -0.0 0.0 -0.0 10.6517 -10.8597 -19.974 -8.8575 -1.35614 -50.0062 0.292264 8.23817 -0.0210476 77.0327 3.50088 8.43373 2.22112 -29.2564 -24.0958 0.0 0.0 0.0 1.5226 -10.5722 -0.52476 -11.5688 0.300827 1.74692 16.9828 27.8024 -2.5071 -23.8409 0.0 0.0 -0.0 0.0 -0.0 9.38478 -29.2778 7.0988 -6.41986 -0.21059 -0.96224 -12.0704 28.7541 -2.27348 39.9934 -0.0 -0.0 0.0 0.0 0.0 
3011.78 745.931 -459.744 167.142 -62.5355 170.868 -1.29199 -0.163639 -2.58145 -1.28829 0.000901265 -2.58663 -1.28549 0.601507 -2.51576 -1.29427 0.196779 -2.57914 -14.3808 9.53652 15.278 -13.7818 8.95557 17.4167 -0.0 0.0 -0.0 5.56441 2.96558 10.8189 2.39116 -24.24 75.0504 2.12519 -46.4665 0.912404 48.1319 -0.838339 -5.91288 1.75265 -8.83865 8.10596 -0.0 0.0 -0.0 10.1083 -9.65505 -19.0993 -8.72517 -0.356765 -51.6086 0.317632 8.94212 -0.0248368 77.5111 3.5547 8.46329 1.73769 -28.8607 -21.1367 0.0 0.0 0.0 1.17313 -9.4502 -0.738124 -7.61811 0.237883 1.14409 12.4277 28.484 -1.8725 -21.8463 0.0 0.0 -0.0 0.0 -0.0 9.46799 -29.5805 7.33716 -6.51908 -0.212994 -0.977276 -11.1643 29.0692 -2.10925 38.2419 -0.0 -0.0 0.0 0.0 0.0 
3014.17 745.999 -453.206 166.196 -63.3139 169.923 -1.37179 -0.0160388 -2.57012 -1.36813 0.147482 -2.56594 -1.37213 0.743124 -2.46046 -1.38042 0.345347 -2.54688 -13.6342 8.2265 15.6511 -12.9712 5.97755 17.3344 -0.0 0.0 -0.0 5.3832 2.58726 10.467 1.64608 -26.4506 74.7335 2.06825 -45.6893 0.871386 47.1628 -0.773264 -5.80727 2.20088 -12.4754 9.56254 -0.0 0.0 -0.0 9.96523 -8.49531 -18.951 -9.3123 -0.425341 -52.3933 0.312879 8.81042 -0.0241034 79.2159 3.74844 8.56495 1.7537 -27.3258 -20.8584 0.0 0.0 0.0 1.38083 -8.18164 -0.903907 -8.49121 0.255371 1.27693 11.5401 28.2577 -1.74118 -22.5331 0.0 0.0 -0.0 0.0 -0.0 8.27982 -30.3389 7.06784 -6.52191 -0.213062 -0.977706 -10.06 28.558 -1.8846 40.111 -0.0 -0.0 0.0 0.0 0.0 
3017.65 745.772 -449.017 165.284 -65.6773 169.046 -1.3016 -0.158644 -2.71261 -1.29751 0.0142225 -2.7172 -1.29507 0.645282 -2.63956 -1.30472 0.220475 -2.70829 -13.6605 8.56161 15.8393 -12.9852 6.50885 17.6097 -0.0 0.0 -0.0 5.34693 0.720067 10.3568 3.08273 -23.6738 77.5364 1.91561 -43.4947 0.764209 48.3396 -0.852523 -5.93538 1.45356 -4.00837 8.11506 -0.0 0.0 -0.0 9.03805 -10.3031 -17.0473 -9.91766 2.41266 -53.8043 0.512127 14.2354 -0.0639499 80.9898 3.95314 8.66458 1.53659 -24.4116 -18.7805 0.0 0.0 0.0 0.695693 -12.6841 -0.841906 -7.80835 0.241866 1.17301 10.9097 29.1345 -1.65898 -27.611 0.0 0.0 -0.0 0.0 -0.0 8.03803 -30.1259 7.28599 -7.20467 -0.228896 -1.08128 -5.53887 29.6364 -1.04409 39.516 -0.0 -0.0 0.0 0.0 0.0 
3021.82 742.839 -444.582 163.21 -68.5492 167.139 -1.14913 -0.215203 -2.72256 -1.145 -0.0415893 -2.73073 -1.13993 0.586864 -2.6673 -1.14982 0.158414 -2.72645 -13.7378 7.61531 15.4844 -13.0822 4.94502 17.0054 -0.0 0.0 -0.0 5.83399 -1.6631 11.2556 3.33739 -21.6633 78.2229 1.73855 -40.7324 0.645436 48.3525 -0.853409 -5.93678 1.18957 -0.99445 7.56667 -0.0 0.0 -0.0 8.49711 -10.0993 -16.0759 -10.3117 4.36127 -56.4025 0.640927 17.6146 -0.0993051 83.1777 4.20969 8.77865 1.31704 -21.5553 -16.5972 0.0 0.0 0.0 -0.240007 -15.4972 -1.60953 -7.66809 0.238939 1.15169 15.8611 28.5304 -2.36248 -32.67 0.0 0.0 -0.0 0.0 -0.0 7.36841 -30.9567 7.33686 -7.87386 -0.243215 -1.18298 -4.1487 29.2647 -0.775627 40.112 -0.0 -0.0 0.0 0.0 0.0 
3026.17 742.478 -433.763 161.536 -70.6278 165.423 -0.924215 -0.232091 -2.58772 -0.920492 -0.0670137 -2.59724 -0.914827 0.521386 -2.54528 -0.92385 0.113005 -2.59564 -11.9224 6.52189 12.9128 -11.4647 3.99746 14.1988 -0.0 0.0 -0.0 6.22291 -5.42264 11.9344 1.19308 -18.2392 76.8479 1.44002 -35.4997 0.460971 49.1516 -0.908748 -6.02282 1.53032 1.07438 10.7076 -0.0 0.0 -0.0 8.73038 -7.46954 -16.6986 -8.91718 4.29606 -56.8017 0.665265 18.2399 -0.106797 85.0827 4.43643 8.86994 1.04999 -20.3505 -14.5706 0.0 0.0 0.0 -1.40425 -18.003 -2.58827 -7.55102 0.236455 1.1339 20.1929 26.1308 -2.91316 -36.9669 0.0 0.0 -0.0 0.0 -0.0 6.52564 -31.9923 7.31592 -8.50022 -0.25554 -1.2783 -5.11132 28.8585 -0.952483 39.5855 -0.0 -0.0 0.0 0.0 0.0 
